<?xml version="1.0" standalone="no"?>
<svg xmlns="http://www.w3.org/2000/svg" viewBox="0 0 151.704 28.848" width="151.704" height="28.848"><g fill="#fa2d0f" color="#fa2d0f" transform="translate(0, 5.501) scale(0.5576924)"><svg width="52.0" height="32.0" x="0.0" y="0.0" viewBox="0 0 52 32"><path fill="currentColor" fill-rule="evenodd" d="M12.406 14.36c-.916 1.87-1.835 3.742-2.744 5.592 2.102-.706 3.191-2.93 2.744-5.591zm-.22-2.485c-2.53 1.567-3.251 4.145-4.021 6.677a1.558 1.558 0 0 0 .363 1.7c.12-.076.23-.172.32-.282.6-1.125 1.216-2.24 1.765-3.388.365-.744.662-1.52.889-2.317.132-.487.181-.92.953-.854l-.268-1.536zm21.018-4.367c2.249-.527 3.934-2.646 3.656-6.135-.356.224-.727.434-1.073.68-1.494 1.064-2.99 2.145-3.8 3.863a2.577 2.577 0 0 0-.135 2.312c.906-1.12 1.754-2.11 2.528-3.152.35-.473.536-1.068.847-1.577a1.37 1.37 0 0 1 .532-.3c.092.157.142.337.144.52-.209.49-.467.954-.773 1.388-.612.822-1.28 1.603-1.926 2.401zm-7.781 10.27c1.817.317 3.491.603 5.162.905.185.058.365.14.53.24a.985.985 0 0 1-.227.392.912.912 0 0 1-.6.144c-.646-.165-1.266-.468-1.919-.577-1.143-.189-2.303-.273-3.456-.402 1.24 1.606 2.755 2.429 4.734 2.154 1.27-.177 2.54-.33 3.805-.522a5.998 5.998 0 0 0 1.008-.367c-2.918-1.562-5.508-3.577-9.037-1.966zM39.624 9.55c.13.03.262.046.396.047 1.8-.221 3.6-.46 5.403-.665.202.033.393.112.56.228a3.632 3.632 0 0 1-.373.442.614.614 0 0 1-.33.104c-1.085.112-2.17.216-3.255.327-.284.03-.568.08-.948.134 2.462 1.653 8.361.074 9.421-2.417-4.307-1.743-9.011-.984-10.874 1.8zM6.671 25.632c.753-.142 1.308-.274 1.87-.348 1.088-.139 2.186-.207 3.267-.381a3.303 3.303 0 0 0 1.24-.535c2.97-1.977 5.34-2.663 8.755-1.138 1.226.547 2.486 1.017 3.725 1.535.28.14.55.298.811.47a1.807 1.807 0 0 1-.658.5c-1.17-.12-2.075.597-3.102.912-1.829.56-3.668 1.193-5.605.692a12.039 12.039 0 0 1-2.88-1.16 3.975 3.975 0 0 0-2.673-.522c-1.629.262-3.252.57-4.866.905-1.557.323-2.653 1.395-3.694 2.484-.831.869-1.549 1.846-2.327 2.765a.537.537 0 0 1-.34.132.727.727 0 0 1-.194-.471 3.15 3.15 0 0 1 .547-.876 21.038 21.038 0 0 0 1.77-1.875c1.615-2.313 3.421-4.479 5.09-6.749.481-.514.566-1.284.209-1.889-.32-.63-.122-1.657.13-2.411.62-1.867 1.387-3.686 2.828-5.122.566-.565 1.06-1.201 1.603-1.79.27-.29.57-.289.668.133.14.565.224 1.141.254 1.723.106 1.408.12 2.821.047 4.232a4.264 4.264 0 0 1-1.876 3.057c-.787.568-1.694.968-2.469 1.548-.515.426-.97.918-1.354 1.463a16.898 16.898 0 0 0-1.578 2.428c1.304-.915 2.59-1.854 3.915-2.74 1.37-.916 2.821-1.715 4.15-2.684a36.315 36.315 0 0 0 3.775-3.147 15.386 15.386 0 0 0 1.778-2.411.738.738 0 0 0 .052-.5c-.293-1.648-.436-3.29.354-4.846a4.878 4.878 0 0 1 2.063-2.177 10.043 10.043 0 0 0 3.047-2.609.825.825 0 0 1 .49-.308.83.83 0 0 1 .39.56c-.182 1.379-.361 2.764-.653 4.122-.512 2.391-2.053 3.957-4.186 5.038a3.287 3.287 0 0 0-1.127 1c-.604.843-1.119 1.75-1.777 2.8.784-.39 1.432-.735 2.1-1.041 1.935-.888 3.868-1.782 5.82-2.63 2.161-.94 3.672-2.61 5.065-4.416a.698.698 0 0 0 .083-.584c-.567-1.358.006-2.539.538-3.728.61-1.363 1.954-1.978 2.983-2.914.782-.71 1.61-1.373 2.434-2.036a.455.455 0 0 1 .731.364 25.45 25.45 0 0 1-.423 3.307 5.98 5.98 0 0 1-4.4 4.662 1.39 1.39 0 0 0-.666.325 33.834 33.834 0 0 0-2.51 3.313c.652-.188 1.298-.396 1.954-.56 2.071-.52 4.149-1.012 6.214-1.547.299-.094.56-.275.752-.521 2.022-2.54 4.575-3.869 7.874-3.39 1.626.238 3.234.601 4.846.933.201.052.372.189.465.375a.684.684 0 0 1-.271.462c-1.653 1.463-3.285 2.952-5.504 3.54a7.9 7.9 0 0 1-5.58-.454c-1.262-.608-2.481-.356-3.677-.063-2.566.628-5.099 1.389-7.646 2.098a2.267 2.267 0 0 0-.328.194c.891.132 1.629.238 2.365.351.44.04.874.115 1.301.225 1.348.448 2.683.258 4.044.064 2.953-.497 5.98.275 8.337 2.124.57.44 1.123.907 1.656 1.393a.738.738 0 0 1 .268.563.712.712 0 0 1-.524.34c-1.49.187-2.982.35-4.474.507a6.919 6.919 0 0 1-4.175-1.082 19.67 19.67 0 0 1-2.986-1.897 6.508 6.508 0 0 0-3.982-1.547 31.618 31.618 0 0 0-3.67-.188 6.503 6.503 0 0 0-2.202.8c-1.884.895-3.747 1.834-5.618 2.755-.093.046-.185.096-.348.182 1.576.04 3.061.16 4.535.077a5.344 5.344 0 0 0 1.902-.759c2.601-1.302 4.958-.433 7.282.778.965.503 1.93 1.004 2.883 1.531.2.15.38.324.535.52-.173.23-.395.417-.652.545-2.131.328-4.261.715-6.407.862a5.158 5.158 0 0 1-4.306-1.693 3.271 3.271 0 0 0-2.724-1.213c-1.362.12-2.774.047-4.074.395a15.13 15.13 0 0 0-3.81 1.734c-2.08 1.254-4.077 2.645-6.096 3.999-.435.291-.814.664-1.383 1.135z"></path></svg></g><line x1="41" y1="1" x2="41" y2="27.848" stroke="#0b0cac" stroke-linecap="round"></line><path fill="#0b0cac" fill-rule="nonzero" d="M11.52 14.50Q11.52 13.78 11.88 13.40Q12.24 13.03 12.77 13.03Q13.30 13.03 13.68 13.37L13.68 13.37L13.68 22.87Q13.68 25.87 12.77 27.36Q11.86 28.85 9.86 28.85L9.86 28.85Q8.66 28.85 7.99 28.08Q7.32 27.31 7.32 25.90L7.32 25.90Q7.32 23.62 8.56 22.20Q9.79 20.78 11.52 20.45L11.52 20.45L11.52 19.78Q9.98 20.38 7.99 20.38L7.99 20.38Q4.37 20.38 2.18 18.13Q0 15.89 0 11.46Q0 7.03 2.22 4.69Q4.44 2.35 8.04 2.35L8.04 2.35Q10.63 2.35 12.12 3.55Q13.61 4.75 13.61 6.22L13.61 6.22Q13.61 6.82 13.25 7.18Q12.89 7.54 12.53 7.54L12.53 7.54Q11.86 7.54 11.62 7.25L11.62 7.25Q11.76 6.89 11.76 6.36L11.76 6.36Q11.76 5.06 10.76 4.30Q9.77 3.53 7.92 3.53L7.92 3.53Q5.54 3.53 3.88 5.80Q2.21 8.06 2.21 11.59Q2.21 15.12 3.89 17.15Q5.57 19.18 7.99 19.18L7.99 19.18Q9.96 19.18 11.52 18.46L11.52 18.46L11.52 14.50ZM8.42 25.97Q8.42 26.88 8.82 27.36Q9.22 27.84 9.96 27.84Q10.70 27.84 11.11 26.77Q11.52 25.70 11.52 22.87L11.52 22.87L11.52 21.70Q10.15 22.01 9.29 23.12Q8.42 24.24 8.42 25.97L8.42 25.97ZM25.08 13.94L25.08 13.94Q25.58 13.94 25.58 14.71L25.58 14.71Q25.58 16.49 24.35 17.95Q23.11 19.42 20.59 19.42Q18.07 19.42 16.55 18.06Q15.02 16.70 15.02 14.08Q15.02 11.45 16.37 9.97Q17.71 8.50 19.80 8.50L19.80 8.50Q21.31 8.50 22.01 9.30Q22.70 10.10 22.70 11.21L22.70 11.21Q22.70 13.01 21.20 14.20Q19.70 15.38 17.38 15.38L17.38 15.38Q17.59 16.92 18.49 17.70Q19.39 18.48 20.87 18.48Q22.34 18.48 23.53 17.36Q24.72 16.25 24.72 14.09L24.72 14.09Q24.74 13.94 25.08 13.94ZM17.30 14.28L17.30 14.28L17.30 14.50Q18.79 14.30 19.88 13.56Q20.98 12.82 20.98 11.35L20.98 11.35Q20.98 10.42 20.57 9.92Q20.16 9.43 19.42 9.43L19.42 9.43Q18.29 9.43 17.80 10.54Q17.30 11.64 17.30 14.28ZM29.21 14.52Q28.25 14.18 27.30 13.81Q26.35 13.44 25.70 12.74Q25.06 12.05 25.06 10.96Q25.06 9.86 26.06 9.18Q27.07 8.50 29.00 8.50Q30.94 8.50 32.03 9.17Q33.12 9.84 33.12 10.73L33.12 10.73Q33.12 11.16 32.80 11.42Q32.47 11.69 32.16 11.69L32.16 11.69Q31.56 11.69 31.37 11.40L31.37 11.40Q31.51 11.23 31.51 10.74Q31.51 10.25 30.77 9.84Q30.02 9.43 29.11 9.43Q28.20 9.43 27.60 9.77Q27 10.10 27 10.79Q27 11.47 27.68 11.98Q28.37 12.48 29.34 12.82Q30.31 13.15 31.28 13.54Q32.26 13.92 32.94 14.63Q33.62 15.34 33.62 16.37L33.62 16.37Q33.62 17.90 32.29 18.66Q30.96 19.42 28.79 19.42Q26.62 19.42 25.26 18.16Q23.90 16.90 23.90 15.02L23.90 15.02Q23.90 14.35 24.17 13.97Q24.43 13.58 24.77 13.58L24.77 13.58Q25.39 13.58 25.49 13.80L25.49 13.80L25.54 13.87Q25.39 14.23 25.39 14.76L25.39 14.76Q25.39 16.37 26.33 17.42Q27.26 18.48 28.92 18.48L28.92 18.48Q31.46 18.48 31.49 16.68L31.49 16.68Q31.49 15.31 29.21 14.52L29.21 14.52ZM45.10 14.42L45.10 14.42Q45.60 14.42 45.60 15.12Q45.60 15.82 45.31 16.51Q45.02 17.21 44.48 17.88Q43.94 18.55 42.97 18.98Q42 19.42 40.78 19.42L40.78 19.42Q38.09 19.42 36.56 18.06Q35.04 16.70 35.04 14.08Q35.04 11.45 36.38 9.97Q37.73 8.50 39.82 8.50L39.82 8.50Q41.33 8.50 42.02 9.30Q42.72 10.10 42.72 11.21L42.72 11.21Q42.72 11.81 42.36 12.17Q42 12.53 41.66 12.53L41.66 12.53Q41.04 12.53 40.85 12.24L40.85 12.24Q40.99 11.88 40.99 11.21Q40.99 10.54 40.54 9.98Q40.08 9.43 39.43 9.43L39.43 9.43Q38.30 9.43 37.81 10.54Q37.32 11.64 37.32 14.00Q37.32 16.37 38.24 17.42Q39.17 18.48 40.82 18.48Q42.48 18.48 43.61 17.46Q44.74 16.44 44.74 14.57L44.74 14.57Q44.76 14.42 45.10 14.42ZM57.77 13.66L57.77 13.66Q58.20 13.66 58.20 14.93L58.20 14.93Q58.20 16.78 57.25 18.10Q56.30 19.42 54.79 19.42Q53.28 19.42 52.28 18.35Q51.29 17.28 51.29 15.60L51.29 15.60L51.29 12.19Q51.29 9.34 49.85 9.34L49.85 9.34Q48.58 9.34 47.76 10.63Q46.94 11.93 46.94 14.98L46.94 14.98L46.94 19.08Q46.70 19.42 46.10 19.42Q45.50 19.42 45.14 19.04Q44.78 18.67 44.78 17.95L44.78 17.95L44.78 5.93Q44.78 2.81 45.38 1.40Q45.98 0 47.69 0L47.69 0Q48.60 0 49.10 0.77Q49.61 1.54 49.61 2.95L49.61 2.95Q49.61 5.52 46.94 8.18L46.94 8.18L46.94 10.30Q47.95 8.50 50.14 8.50L50.14 8.50Q51.70 8.50 52.62 9.48Q53.54 10.46 53.54 12.31L53.54 12.31L53.54 15.72Q53.54 17.09 53.98 17.78Q54.41 18.48 55.25 18.48Q56.09 18.48 56.75 17.34Q57.41 16.20 57.41 13.80L57.41 13.80Q57.43 13.66 57.77 13.66ZM46.94 7.03L46.94 7.03Q48.58 4.92 48.58 2.93Q48.58 0.94 47.71 0.94L47.71 0.94Q47.23 0.94 47.09 2.04Q46.94 3.14 46.94 7.03ZM67.51 13.94L67.51 13.94Q68.02 13.94 68.02 14.71L68.02 14.71Q68.02 16.49 66.78 17.95Q65.54 19.42 63.02 19.42Q60.50 19.42 58.98 18.06Q57.46 16.70 57.46 14.08Q57.46 11.45 58.80 9.97Q60.14 8.50 62.23 8.50L62.23 8.50Q63.74 8.50 64.44 9.30Q65.14 10.10 65.14 11.21L65.14 11.21Q65.14 13.01 63.64 14.20Q62.14 15.38 59.81 15.38L59.81 15.38Q60.02 16.92 60.92 17.70Q61.82 18.48 63.30 18.48Q64.78 18.48 65.96 17.36Q67.15 16.25 67.15 14.09L67.15 14.09Q67.18 13.94 67.51 13.94ZM59.74 14.28L59.74 14.28L59.74 14.50Q61.22 14.30 62.32 13.56Q63.41 12.82 63.41 11.35L63.41 11.35Q63.41 10.42 63 9.92Q62.59 9.43 61.85 9.43L61.85 9.43Q60.72 9.43 60.23 10.54Q59.74 11.64 59.74 14.28ZM80.18 13.66L80.18 13.66Q80.62 13.66 80.62 14.93L80.62 14.93Q80.62 16.97 79.74 18.19Q78.86 19.42 77.18 19.42Q75.50 19.42 74.60 18.26Q73.70 17.11 73.70 15L73.70 15L73.70 12.19Q73.70 9.34 72.26 9.34L72.26 9.34Q70.99 9.34 70.18 10.63Q69.36 11.93 69.36 14.98L69.36 14.98L69.36 19.08Q69.12 19.42 68.52 19.42Q67.92 19.42 67.56 19.04Q67.20 18.67 67.20 17.95L67.20 17.95L67.20 8.83Q67.44 8.50 68.11 8.50L68.11 8.50Q69.36 8.50 69.36 10.30L69.36 10.30Q70.37 8.50 72.55 8.50L72.55 8.50Q74.11 8.50 75.04 9.48Q75.96 10.46 75.96 12.31L75.96 12.31L75.96 15.72Q75.96 17.09 76.39 17.78Q76.82 18.48 77.68 18.48Q78.53 18.48 79.18 17.41Q79.82 16.34 79.82 13.80L79.82 13.80Q79.85 13.66 80.18 13.66ZM92.69 13.66L92.69 13.66Q93.12 13.66 93.12 14.93L93.12 14.93Q93.12 16.92 92.21 18.17Q91.30 19.42 89.69 19.42Q88.08 19.42 86.95 18.35Q85.82 17.28 85.54 15.77L85.54 15.77Q83.93 16.44 82.06 16.54L82.06 16.54L82.06 19.08Q81.82 19.42 81.22 19.42Q80.62 19.42 80.26 19.04Q79.90 18.67 79.90 17.95L79.90 17.95L79.90 5.93Q79.90 2.81 80.50 1.40Q81.10 0 82.80 0L82.80 0Q83.71 0 84.22 0.77Q84.72 1.54 84.72 2.95L84.72 2.95Q84.72 5.52 82.06 8.18L82.06 8.18L82.06 10.49Q83.14 8.50 85.51 8.50L85.51 8.50Q87.02 8.50 87.95 9.29Q88.87 10.08 88.87 11.45L88.87 11.45Q88.87 13.30 87.29 14.69L87.29 14.69Q87.41 16.15 88.18 17.32Q88.94 18.48 90.12 18.48L90.12 18.48Q91.03 18.48 91.68 17.34Q92.33 16.20 92.33 13.80L92.33 13.80Q92.35 13.66 92.69 13.66ZM86.76 11.47L86.76 11.47Q86.76 10.46 86.33 9.90Q85.90 9.34 85.22 9.34L85.22 9.34Q83.90 9.34 82.98 10.75Q82.06 12.17 82.06 15.60L82.06 15.60Q84.12 15.38 85.44 14.17Q86.76 12.96 86.76 11.47ZM82.06 7.03L82.06 7.03Q83.69 4.92 83.69 2.93Q83.69 0.94 82.82 0.94L82.82 0.94Q82.34 0.94 82.20 2.04Q82.06 3.14 82.06 7.03ZM92.38 6.41Q92.38 5.69 92.74 5.32Q93.10 4.94 93.65 4.94Q94.20 4.94 94.54 5.28L94.54 5.28L94.54 8.83L97.82 8.83Q98.33 8.83 98.48 9.02Q98.64 9.22 98.64 9.67L98.64 9.67L94.54 9.67L94.54 15.72Q94.54 17.04 95.29 17.76Q96.05 18.48 97.03 18.48L97.03 18.48Q98.52 18.48 99.22 17.38Q99.91 16.27 99.91 13.80L99.91 13.80Q99.96 13.66 100.27 13.66L100.27 13.66Q100.70 13.66 100.70 14.93L100.70 14.93Q100.70 16.87 99.73 18.14Q98.76 19.42 96.74 19.42Q94.73 19.42 93.55 18.36Q92.38 17.30 92.38 15.22L92.38 15.22L92.38 6.41Z" transform="translate(51, 0)"></path></svg>